<svg width="51" height="51" viewBox="0 0 51 51" fill="none" xmlns="http://www.w3.org/2000/svg">
<path d="M31.316 25.5L49.0535 7.80378C49.8302 7.02703 50.2666 5.97353 50.2666 4.87503C50.2666 3.77654 49.8302 2.72304 49.0535 1.94628C48.2767 1.16953 47.2232 0.733154 46.1247 0.733154C45.0263 0.733154 43.9728 1.16953 43.196 1.94628L25.4997 19.6838L7.8035 1.94628C7.02675 1.16953 5.97324 0.733154 4.87475 0.733154C3.77625 0.733154 2.72275 1.16953 1.946 1.94628C1.16925 2.72304 0.73287 3.77654 0.73287 4.87503C0.73287 5.97353 1.16925 7.02703 1.946 7.80378L19.6835 25.5L1.946 43.1963C1.55937 43.5798 1.25249 44.036 1.04307 44.5387C0.833651 45.0413 0.72583 45.5805 0.72583 46.125C0.72583 46.6696 0.833651 47.2087 1.04307 47.7114C1.25249 48.2141 1.55937 48.6703 1.946 49.0538C2.32947 49.4404 2.7857 49.7473 3.28837 49.9567C3.79104 50.1661 4.3302 50.2739 4.87475 50.2739C5.4193 50.2739 5.95846 50.1661 6.46113 49.9567C6.9638 49.7473 7.42003 49.4404 7.8035 49.0538L25.4997 31.3163L43.196 49.0538C43.5795 49.4404 44.0357 49.7473 44.5384 49.9567C45.041 50.1661 45.5802 50.2739 46.1247 50.2739C46.6693 50.2739 47.2085 50.1661 47.7111 49.9567C48.2138 49.7473 48.67 49.4404 49.0535 49.0538C49.4401 48.6703 49.747 48.2141 49.9564 47.7114C50.1658 47.2087 50.2737 46.6696 50.2737 46.125C50.2737 45.5805 50.1658 45.0413 49.9564 44.5387C49.747 44.036 49.4401 43.5798 49.0535 43.1963L31.316 25.5Z" fill="#111727"/>
</svg>
