<svg width="130" height="130" viewBox="0 0 130 130" fill="none" xmlns="http://www.w3.org/2000/svg">
<path d="M64.8259 72.9291C69.3012 72.9291 72.9291 69.3012 72.9291 64.8259C72.9291 60.3506 69.3012 56.7227 64.8259 56.7227C60.3506 56.7227 56.7227 60.3506 56.7227 64.8259C56.7227 69.3012 60.3506 72.9291 64.8259 72.9291Z" fill="white"/>
<path d="M82.5993 97.8871L75.6305 90.6482L75.2524 90.27L68.3917 83.4093C67.3029 83.6 66.2014 83.7084 65.0963 83.7334C62.5907 83.7692 60.103 83.3066 57.7778 82.3725C55.4525 81.4383 53.3362 80.0513 51.5517 78.292C49.7673 76.5326 48.3504 74.4362 47.3833 72.1244C46.4163 69.8127 45.9184 67.3318 45.9187 64.8259C45.9437 63.7209 46.0521 62.6193 46.2428 61.5306L35.4385 50.7263L27.0111 42.515C20.9139 48.26 15.6904 54.8667 11.507 62.1248C11.0328 62.946 10.7832 63.8776 10.7832 64.8259C10.7832 65.7742 11.0328 66.7057 11.507 67.527C14.9103 73.4153 33.1156 102.641 64.9343 102.641H66.2848C72.268 102.463 78.1737 101.238 83.7338 99.0215L82.5993 97.8871Z" fill="white"/>
<path d="M46.4047 31.1164L61.5307 46.2425C62.6194 46.0518 63.721 45.9434 64.826 45.9184C69.8406 45.9184 74.6498 47.9104 78.1957 51.4562C81.7415 55.0021 83.7335 59.8113 83.7335 64.8259C83.7085 65.9309 83.6001 67.0325 83.4094 68.1212L97.8872 82.599L102.425 87.1368C108.599 81.4069 113.896 74.7995 118.145 67.527C118.619 66.7057 118.869 65.7742 118.869 64.8259C118.869 63.8776 118.619 62.9461 118.145 62.1248C114.688 56.1284 95.6723 26.0384 63.3674 27.0108C57.3843 27.1883 51.4786 28.4133 45.9185 30.6303L46.4047 31.1164Z" fill="white"/>
<path d="M111.88 104.208L104.857 97.2388L94.0527 86.4345L42.6242 34.952L34.683 27.0108L25.4453 17.7731C24.9416 17.2694 24.3437 16.8699 23.6856 16.5973C23.0275 16.3247 22.3221 16.1844 21.6098 16.1844C20.8975 16.1844 20.1921 16.3247 19.534 16.5973C18.8759 16.8699 18.278 17.2694 17.7743 17.7731C16.757 18.7904 16.1855 20.17 16.1855 21.6086C16.1855 23.0473 16.757 24.4269 17.7743 25.4442L29.8751 37.8151L39.3289 46.9988L78.8186 86.4345L79.1968 86.8127L86.4357 94.0516L89.6229 97.2388L104.209 111.879C104.711 112.385 105.308 112.787 105.967 113.061C106.625 113.335 107.331 113.477 108.044 113.477C108.757 113.477 109.464 113.335 110.122 113.061C110.78 112.787 111.378 112.385 111.88 111.879C112.386 111.376 112.788 110.779 113.062 110.121C113.337 109.462 113.478 108.756 113.478 108.043C113.478 107.33 113.337 106.624 113.062 105.966C112.788 105.307 112.386 104.71 111.88 104.208Z" fill="white"/>
</svg>
