<svg width="81" height="65" viewBox="0 0 81 65" fill="none" xmlns="http://www.w3.org/2000/svg">
<path d="M72.1651 16.1094C72.2141 16.8114 72.2141 17.5135 72.2141 18.222C72.2141 39.8111 55.6222 64.71 25.2831 64.71V64.697C16.3208 64.71 7.54476 62.167 0 57.3723C1.30319 57.5276 2.6129 57.6053 3.92589 57.6085C11.3531 57.615 18.5679 55.1464 24.411 50.6008C17.3529 50.4682 11.1636 45.9097 9.00145 39.2547C11.4739 39.727 14.0215 39.63 16.4482 38.9732C8.75323 37.4332 3.21714 30.7361 3.21714 22.9585V22.7514C5.50996 24.0164 8.07714 24.7185 10.7031 24.7961C3.45556 19.9982 1.22153 10.4476 5.59815 2.98056C13.9725 13.1879 26.3283 19.3932 39.592 20.05C38.2627 14.3753 40.0787 8.42879 44.3638 4.43967C51.0071 -1.74621 61.4555 -1.42915 67.7003 5.1482C71.3943 4.42673 74.9348 3.08408 78.1748 1.18173C76.9435 4.96379 74.3665 8.17644 70.924 10.2179C74.1934 9.83614 77.3877 8.96908 80.3958 7.64585C78.1813 10.9329 75.3921 13.7961 72.1651 16.1094Z" fill="#931DF0"/>
</svg>
